<?xml version="1.0" standalone="no"?>
<!DOCTYPE svg PUBLIC "-//W3C//DTD SVG 20010904//EN"
 "http://www.w3.org/TR/2001/REC-SVG-20010904/DTD/svg10.dtd">
<svg version="1.0" xmlns="http://www.w3.org/2000/svg"
 width="100.000000pt" height="100.000000pt" viewBox="0 0 100.000000 100.000000"
 preserveAspectRatio="xMidYMid meet">
<metadata>
Created by potrace 1.16, written by Peter Selinger 2001-2019
</metadata>
<g transform="translate(0.000000,100.000000) scale(0.100000,-0.100000)"
fill="#000000" stroke="none">
<path d="M390 989 c-75 -15 -180 -73 -242 -135 -234 -234 -183 -615 105 -788
187 -112 442 -77 600 81 190 190 195 494 12 691 -121 130 -296 186 -475 151z
m202 -60 c97 -21 188 -78 250 -157 l38 -47 -48 -7 c-26 -3 -99 -7 -162 -7
-159 -2 -244 -14 -284 -42 -55 -37 -80 -83 -84 -155 -3 -35 -7 -64 -9 -64 -3
0 -55 26 -115 58 l-109 57 5 35 c15 96 126 239 224 289 88 45 199 60 294 40z
m327 -301 c35 -99 20 -237 -36 -340 -53 -98 -195 -202 -293 -215 -39 -6 -40
-5 -31 18 5 13 39 100 75 192 74 188 81 238 46 307 -11 21 -25 42 -32 47 -8 4
37 10 102 14 63 3 125 6 137 7 16 1 24 -6 32 -30z m-350 -6 c93 -50 92 -185
-1 -242 -89 -54 -208 12 -208 116 0 107 116 176 209 126z m-59 -320 c33 1 60
1 60 -2 0 -3 -20 -57 -45 -120 l-44 -115 -36 2 c-60 4 -107 21 -175 62 -109
65 -188 189 -206 322 l-7 52 197 -102 c193 -101 198 -103 256 -99z"/>
</g>
</svg>
